<svg xmlns="http://www.w3.org/2000/svg" xmlns:xlink="http://www.w3.org/1999/xlink" width="800" zoomAndPan="magnify" viewBox="0 0 600 179.999997" height="240" preserveAspectRatio="xMidYMid meet" version="1.0"><defs><g/><clipPath id="91cf731553"><path d="M 36 120 L 201 120 L 201 179.761719 L 36 179.761719 Z M 36 120 " clip-rule="nonzero"/></clipPath><clipPath id="49c3b37ccf"><rect x="0" width="165" y="0" height="60"/></clipPath><clipPath id="445ccbdfb8"><rect x="0" width="176" y="0" height="60"/></clipPath><clipPath id="8a89636eee"><path d="M 65 123 L 143 123 L 143 154.277344 L 65 154.277344 Z M 65 123 " clip-rule="nonzero"/></clipPath><clipPath id="479253945d"><path d="M 67 131 L 118 131 L 118 154.277344 L 67 154.277344 Z M 67 131 " clip-rule="nonzero"/></clipPath><clipPath id="81138c3b26"><path d="M 59.429688 23.132812 L 172.484375 23.132812 L 172.484375 59 L 59.429688 59 Z M 59.429688 23.132812 " clip-rule="nonzero"/></clipPath><clipPath id="767b1c5213"><path d="M 0.160156 49 L 241.359375 49 L 241.359375 123 L 0.160156 123 Z M 0.160156 49 " clip-rule="nonzero"/></clipPath><clipPath id="10d2f2b47d"><rect x="0" width="242" y="0" height="74"/></clipPath><clipPath id="0ed27cae38"><rect x="0" width="242" y="0" height="180"/></clipPath></defs><rect x="-60" width="720" fill="#ffffff" y="-18" height="215.999996" fill-opacity="1"/><rect x="-60" width="720" fill="#ffffff" y="-18" height="215.999996" fill-opacity="1"/><g transform="matrix(1, 0, 0, 1, 182, 0)"><g clip-path="url(#0ed27cae38)"><g clip-path="url(#91cf731553)"><g transform="matrix(1, 0, 0, 1, 36, 120)"><g clip-path="url(#49c3b37ccf)"><g fill="#181b13" fill-opacity="1"><g transform="translate(3.410868, 7.714463)"><g><path d="M 13.71875 3.75 L 5.21875 8.796875 L 4.0625 6.84375 L 7.546875 4.78125 L 5.25 0.90625 L 1.765625 2.96875 L 0.59375 1 L 9.09375 -4.046875 L 10.265625 -2.078125 L 6.90625 -0.078125 L 9.203125 3.796875 L 12.5625 1.796875 Z M 13.71875 3.75 "/></g></g></g><g fill="#181b13" fill-opacity="1"><g transform="translate(13.419297, 23.057157)"><g><path d="M 7.28125 5.328125 L 5.90625 6.5625 L 0.78125 0.875 L 8.140625 -5.734375 L 13.140625 -0.1875 L 11.765625 1.046875 L 8.296875 -2.8125 L 6.703125 -1.390625 L 9.765625 2.015625 L 8.4375 3.203125 L 5.375 -0.203125 L 3.6875 1.328125 Z M 7.28125 5.328125 "/></g></g></g><g fill="#181b13" fill-opacity="1"><g transform="translate(24.809798, 34.827384)"><g><path d="M 7.421875 2.921875 L 3.75 0.15625 L 1.765625 1.328125 L -0.09375 -0.078125 L 9.375 -5.328125 L 11.1875 -3.96875 L 8.765625 6.59375 L 6.84375 5.15625 Z M 7.890625 1.109375 L 8.90625 -2.875 L 5.390625 -0.78125 Z M 7.890625 1.109375 "/></g></g></g><g fill="#181b13" fill-opacity="1"><g transform="translate(39.375853, 44.849747)"><g><path d="M 5.421875 -8.359375 L 7.46875 -7.34375 L 3.921875 -0.140625 L 8.390625 2.046875 L 7.5625 3.71875 L 1.046875 0.515625 Z M 5.421875 -8.359375 "/></g></g></g><g fill="#181b13" fill-opacity="1"><g transform="translate(53.389163, 51.097945)"><g><path d="M 5.328125 -6.8125 L 2.296875 -7.6875 L 2.828125 -9.484375 L 11.09375 -7.078125 L 10.5625 -5.28125 L 7.53125 -6.171875 L 5.296875 1.53125 L 3.09375 0.890625 Z M 5.328125 -6.8125 "/></g></g></g><g fill="#181b13" fill-opacity="1"><g transform="translate(68.538622, 54.940031)"><g><path d="M 11.078125 -8.921875 L 10.1875 0.921875 L 7.921875 0.71875 L 8.28125 -3.3125 L 3.796875 -3.71875 L 3.4375 0.3125 L 1.171875 0.109375 L 2.0625 -9.734375 L 4.328125 -9.53125 L 3.984375 -5.640625 L 8.46875 -5.234375 L 8.8125 -9.125 Z M 11.078125 -8.921875 "/></g></g></g><g fill="#181b13" fill-opacity="1"><g transform="translate(86.838446, 55.82246)"><g><path d="M 5.515625 -4.109375 L 5.890625 -0.625 L 3.609375 -0.390625 L 3.234375 -3.90625 L -1.25 -9.8125 L 1.171875 -10.0625 L 4.25 -5.984375 L 6.421875 -10.625 L 8.65625 -10.875 Z M 5.515625 -4.109375 "/></g></g></g><g fill="#181b13" fill-opacity="1"><g transform="translate(102.898782, 53.373491)"><g/></g></g><g fill="#181b13" fill-opacity="1"><g transform="translate(113.156299, 50.325328)"><g><path d="M -0.03125 -8.75 L 1 -6.359375 L 5.203125 -8.1875 L 5.9375 -6.515625 L 1.734375 -4.6875 L 3.171875 -1.375 L 1.078125 -0.46875 L -2.859375 -9.546875 L 3.984375 -12.515625 L 4.71875 -10.8125 Z M -0.03125 -8.75 "/></g></g></g><g fill="#181b13" fill-opacity="1"><g transform="translate(127.565425, 43.485272)"><g><path d="M 4.984375 -3.25 C 4.148438 -2.664062 3.269531 -2.320312 2.34375 -2.21875 C 1.414062 -2.113281 0.539062 -2.242188 -0.28125 -2.609375 C -1.113281 -2.984375 -1.804688 -3.570312 -2.359375 -4.375 C -2.921875 -5.175781 -3.226562 -6.023438 -3.28125 -6.921875 C -3.34375 -7.828125 -3.160156 -8.695312 -2.734375 -9.53125 C -2.304688 -10.363281 -1.675781 -11.070312 -0.84375 -11.65625 C 0 -12.25 0.878906 -12.59375 1.796875 -12.6875 C 2.722656 -12.789062 3.601562 -12.660156 4.4375 -12.296875 C 5.269531 -11.929688 5.96875 -11.347656 6.53125 -10.546875 C 7.082031 -9.742188 7.382812 -8.890625 7.4375 -7.984375 C 7.488281 -7.078125 7.300781 -6.207031 6.875 -5.375 C 6.457031 -4.550781 5.828125 -3.84375 4.984375 -3.25 Z M 3.875 -4.859375 C 4.363281 -5.203125 4.722656 -5.613281 4.953125 -6.09375 C 5.191406 -6.582031 5.28125 -7.097656 5.21875 -7.640625 C 5.164062 -8.191406 4.96875 -8.71875 4.625 -9.21875 C 4.269531 -9.71875 3.847656 -10.085938 3.359375 -10.328125 C 2.867188 -10.578125 2.351562 -10.675781 1.8125 -10.625 C 1.269531 -10.582031 0.753906 -10.390625 0.265625 -10.046875 C -0.210938 -9.710938 -0.566406 -9.300781 -0.796875 -8.8125 C -1.023438 -8.332031 -1.113281 -7.816406 -1.0625 -7.265625 C -1.007812 -6.722656 -0.804688 -6.203125 -0.453125 -5.703125 C -0.109375 -5.203125 0.304688 -4.828125 0.796875 -4.578125 C 1.296875 -4.335938 1.8125 -4.238281 2.34375 -4.28125 C 2.882812 -4.332031 3.394531 -4.523438 3.875 -4.859375 Z M 3.875 -4.859375 "/></g></g></g><g fill="#181b13" fill-opacity="1"><g transform="translate(142.670796, 32.09468)"><g><path d="M 4.1875 -4.25 C 3.488281 -3.5 2.695312 -2.96875 1.8125 -2.65625 C 0.925781 -2.351562 0.0390625 -2.296875 -0.84375 -2.484375 C -1.726562 -2.679688 -2.523438 -3.109375 -3.234375 -3.765625 C -3.953125 -4.429688 -4.4375 -5.195312 -4.6875 -6.0625 C -4.9375 -6.9375 -4.941406 -7.828125 -4.703125 -8.734375 C -4.460938 -9.640625 -3.992188 -10.46875 -3.296875 -11.21875 C -2.597656 -11.96875 -1.804688 -12.488281 -0.921875 -12.78125 C -0.046875 -13.082031 0.832031 -13.140625 1.71875 -12.953125 C 2.613281 -12.773438 3.421875 -12.351562 4.140625 -11.6875 C 4.847656 -11.03125 5.320312 -10.257812 5.5625 -9.375 C 5.8125 -8.5 5.816406 -7.613281 5.578125 -6.71875 C 5.347656 -5.820312 4.882812 -5 4.1875 -4.25 Z M 2.765625 -5.578125 C 3.171875 -6.003906 3.429688 -6.476562 3.546875 -7 C 3.671875 -7.519531 3.644531 -8.046875 3.46875 -8.578125 C 3.300781 -9.109375 3 -9.578125 2.5625 -9.984375 C 2.113281 -10.410156 1.617188 -10.6875 1.078125 -10.8125 C 0.546875 -10.9375 0.0234375 -10.921875 -0.484375 -10.765625 C -1.003906 -10.609375 -1.46875 -10.316406 -1.875 -9.890625 C -2.269531 -9.460938 -2.53125 -8.984375 -2.65625 -8.453125 C -2.78125 -7.921875 -2.753906 -7.394531 -2.578125 -6.875 C -2.410156 -6.363281 -2.101562 -5.894531 -1.65625 -5.46875 C -1.21875 -5.0625 -0.726562 -4.785156 -0.1875 -4.640625 C 0.34375 -4.503906 0.867188 -4.519531 1.390625 -4.6875 C 1.910156 -4.851562 2.367188 -5.148438 2.765625 -5.578125 Z M 2.765625 -5.578125 "/></g></g></g><g fill="#181b13" fill-opacity="1"><g transform="translate(154.994783, 17.751226)"><g><path d="M -7.90625 -6.0625 L -5.59375 -9.9375 C -5.050781 -10.851562 -4.390625 -11.554688 -3.609375 -12.046875 C -2.835938 -12.546875 -2.015625 -12.800781 -1.140625 -12.8125 C -0.265625 -12.820312 0.597656 -12.578125 1.453125 -12.078125 C 2.296875 -11.566406 2.914062 -10.925781 3.3125 -10.15625 C 3.71875 -9.382812 3.882812 -8.539062 3.8125 -7.625 C 3.75 -6.707031 3.445312 -5.789062 2.90625 -4.875 L 0.59375 -1 Z M 1.234375 -5.71875 C 1.734375 -6.570312 1.894531 -7.394531 1.71875 -8.1875 C 1.550781 -8.976562 1.066406 -9.613281 0.265625 -10.09375 C -0.554688 -10.570312 -1.351562 -10.703125 -2.125 -10.484375 C -2.90625 -10.265625 -3.546875 -9.726562 -4.046875 -8.875 L -5.125 -7.078125 L 0.15625 -3.921875 Z M 1.234375 -5.71875 "/></g></g></g></g></g></g><g transform="matrix(1, 0, 0, 1, 30, 0)"><g clip-path="url(#445ccbdfb8)"><g fill="#181b13" fill-opacity="1"><g transform="translate(12.172466, 57.227167)"><g><path d="M -2.765625 -13.953125 L 5.546875 -8.59375 L 4.53125 -7.03125 L -3.1875 -6.140625 L 1.859375 -2.890625 L 0.640625 -0.984375 L -7.671875 -6.34375 L -6.65625 -7.9375 L 1.0625 -8.8125 L -3.984375 -12.0625 Z M -2.765625 -13.953125 "/></g></g></g><g fill="#181b13" fill-opacity="1"><g transform="translate(21.906458, 43.205727)"><g><path d="M 3.8125 -7 L 0.625 -3.6875 L 1.546875 -1.59375 L -0.09375 0.09375 L -4.140625 -9.953125 L -2.5625 -11.578125 L 7.625 -7.890625 L 5.953125 -6.15625 Z M 2.0625 -7.703125 L -1.75 -9.1875 L -0.125 -5.4375 Z M 2.0625 -7.703125 "/></g></g></g><g fill="#181b13" fill-opacity="1"><g transform="translate(33.820578, 31.740749)"><g><path d="M -2.0625 -8.390625 L -4.625 -6.546875 L -5.71875 -8.0625 L 1.28125 -13.09375 L 2.375 -11.578125 L -0.1875 -9.734375 L 4.484375 -3.21875 L 2.609375 -1.875 Z M -2.0625 -8.390625 "/></g></g></g><g fill="#181b13" fill-opacity="1"><g transform="translate(45.790639, 23.648211)"><g><path d="M 5.109375 -2.21875 C 3.835938 -1.613281 2.675781 -1.5 1.625 -1.875 C 0.582031 -2.25 -0.25 -3.085938 -0.875 -4.390625 L -3.234375 -9.40625 L -1.171875 -10.375 L 1.15625 -5.453125 C 1.90625 -3.847656 2.945312 -3.359375 4.28125 -3.984375 C 4.925781 -4.296875 5.328125 -4.722656 5.484375 -5.265625 C 5.640625 -5.816406 5.523438 -6.507812 5.140625 -7.34375 L 2.8125 -12.265625 L 4.859375 -13.234375 L 7.21875 -8.21875 C 7.84375 -6.914062 7.96875 -5.738281 7.59375 -4.6875 C 7.21875 -3.644531 6.390625 -2.820312 5.109375 -2.21875 Z M 5.109375 -2.21875 "/></g></g></g><g fill="#181b13" fill-opacity="1"><g transform="translate(61.220403, 16.997807)"><g><path d="M 7.234375 -1.84375 L 4.703125 -4.046875 L 4.59375 -4.03125 L 2.65625 -3.53125 L 3.34375 -0.859375 L 1.140625 -0.296875 L -1.3125 -9.875 L 2.828125 -10.9375 C 3.671875 -11.144531 4.441406 -11.1875 5.140625 -11.0625 C 5.847656 -10.945312 6.4375 -10.671875 6.90625 -10.234375 C 7.375 -9.804688 7.703125 -9.234375 7.890625 -8.515625 C 8.066406 -7.816406 8.050781 -7.164062 7.84375 -6.5625 C 7.632812 -5.957031 7.253906 -5.429688 6.703125 -4.984375 L 9.625 -2.46875 Z M 5.640625 -7.9375 C 5.503906 -8.488281 5.222656 -8.859375 4.796875 -9.046875 C 4.378906 -9.242188 3.835938 -9.257812 3.171875 -9.09375 L 1.359375 -8.625 L 2.203125 -5.296875 L 4.015625 -5.765625 C 4.679688 -5.929688 5.148438 -6.203125 5.421875 -6.578125 C 5.703125 -6.960938 5.773438 -7.414062 5.640625 -7.9375 Z M 5.640625 -7.9375 "/></g></g></g><g fill="#181b13" fill-opacity="1"><g transform="translate(76.903633, 13.518005)"><g><path d="M 7.546875 -2.59375 L 2.96875 -2.3125 L 2.21875 -0.140625 L -0.125 0 L 3.65625 -10.140625 L 5.921875 -10.28125 L 10.953125 -0.671875 L 8.546875 -0.53125 Z M 6.71875 -4.28125 L 4.90625 -7.953125 L 3.59375 -4.09375 Z M 6.71875 -4.28125 "/></g></g></g><g fill="#181b13" fill-opacity="1"><g transform="translate(93.437476, 13.117322)"><g><path d="M 2.3125 -9.6875 L 4.578125 -9.421875 L 3.640625 -1.4375 L 8.578125 -0.859375 L 8.359375 0.984375 L 1.15625 0.140625 Z M 2.3125 -9.6875 "/></g></g></g><g fill="#181b13" fill-opacity="1"><g transform="translate(107.674974, 15.377358)"><g/></g></g><g fill="#181b13" fill-opacity="1"><g transform="translate(117.167581, 18.140376)"><g><path d="M 6.328125 -6.046875 L 5.296875 -3.640625 L 9.515625 -1.859375 L 8.8125 -0.1875 L 4.59375 -1.96875 L 3.171875 1.359375 L 1.078125 0.453125 L 4.953125 -8.640625 L 11.828125 -5.703125 L 11.109375 -4.015625 Z M 6.328125 -6.046875 "/></g></g></g><g fill="#181b13" fill-opacity="1"><g transform="translate(130.550699, 24.276547)"><g><path d="M 4.84375 3.453125 C 4 2.890625 3.359375 2.195312 2.921875 1.375 C 2.484375 0.550781 2.285156 -0.3125 2.328125 -1.21875 C 2.367188 -2.132812 2.660156 -2.992188 3.203125 -3.796875 C 3.742188 -4.617188 4.425781 -5.21875 5.25 -5.59375 C 6.070312 -5.96875 6.945312 -6.109375 7.875 -6.015625 C 8.8125 -5.929688 9.703125 -5.609375 10.546875 -5.046875 C 11.410156 -4.472656 12.054688 -3.769531 12.484375 -2.9375 C 12.910156 -2.113281 13.101562 -1.25 13.0625 -0.34375 C 13.03125 0.550781 12.742188 1.410156 12.203125 2.234375 C 11.660156 3.035156 10.972656 3.628906 10.140625 4.015625 C 9.316406 4.398438 8.441406 4.546875 7.515625 4.453125 C 6.597656 4.359375 5.707031 4.023438 4.84375 3.453125 Z M 5.921875 1.828125 C 6.421875 2.160156 6.941406 2.347656 7.484375 2.390625 C 8.023438 2.429688 8.539062 2.320312 9.03125 2.0625 C 9.519531 1.8125 9.929688 1.4375 10.265625 0.9375 C 10.609375 0.414062 10.800781 -0.113281 10.84375 -0.65625 C 10.894531 -1.195312 10.800781 -1.707031 10.5625 -2.1875 C 10.320312 -2.675781 9.953125 -3.085938 9.453125 -3.421875 C 8.972656 -3.742188 8.460938 -3.921875 7.921875 -3.953125 C 7.378906 -3.992188 6.863281 -3.890625 6.375 -3.640625 C 5.894531 -3.398438 5.484375 -3.019531 5.140625 -2.5 C 4.804688 -2 4.613281 -1.472656 4.5625 -0.921875 C 4.507812 -0.367188 4.601562 0.144531 4.84375 0.625 C 5.082031 1.101562 5.441406 1.503906 5.921875 1.828125 Z M 5.921875 1.828125 "/></g></g></g><g fill="#181b13" fill-opacity="1"><g transform="translate(144.795318, 34.513105)"><g><path d="M 4.046875 4.375 C 3.328125 3.644531 2.835938 2.828125 2.578125 1.921875 C 2.328125 1.023438 2.3125 0.140625 2.53125 -0.734375 C 2.757812 -1.609375 3.21875 -2.382812 3.90625 -3.0625 C 4.601562 -3.75 5.394531 -4.195312 6.28125 -4.40625 C 7.164062 -4.625 8.050781 -4.59375 8.9375 -4.3125 C 9.820312 -4.03125 10.625 -3.523438 11.34375 -2.796875 C 12.0625 -2.066406 12.550781 -1.253906 12.8125 -0.359375 C 13.070312 0.523438 13.085938 1.410156 12.859375 2.296875 C 12.640625 3.179688 12.179688 3.96875 11.484375 4.65625 C 10.796875 5.332031 10.007812 5.769531 9.125 5.96875 C 8.238281 6.175781 7.347656 6.144531 6.453125 5.875 C 5.566406 5.601562 4.765625 5.101562 4.046875 4.375 Z M 5.4375 3 C 5.851562 3.414062 6.320312 3.695312 6.84375 3.84375 C 7.363281 4 7.890625 4 8.421875 3.84375 C 8.953125 3.695312 9.429688 3.414062 9.859375 3 C 10.296875 2.5625 10.59375 2.082031 10.75 1.5625 C 10.90625 1.039062 10.914062 0.515625 10.78125 -0.015625 C 10.644531 -0.546875 10.367188 -1.019531 9.953125 -1.4375 C 9.546875 -1.851562 9.082031 -2.128906 8.5625 -2.265625 C 8.039062 -2.410156 7.515625 -2.410156 6.984375 -2.265625 C 6.453125 -2.128906 5.96875 -1.84375 5.53125 -1.40625 C 5.101562 -0.988281 4.8125 -0.515625 4.65625 0.015625 C 4.5 0.546875 4.488281 1.070312 4.625 1.59375 C 4.757812 2.113281 5.03125 2.582031 5.4375 3 Z M 5.4375 3 "/></g></g></g><g fill="#181b13" fill-opacity="1"><g transform="translate(156.669935, 47.431307)"><g><path d="M 8.9375 -4.390625 L 11.375 -0.609375 C 11.957031 0.285156 12.300781 1.191406 12.40625 2.109375 C 12.507812 3.023438 12.367188 3.875 11.984375 4.65625 C 11.609375 5.445312 11.003906 6.109375 10.171875 6.640625 C 9.347656 7.179688 8.5 7.460938 7.625 7.484375 C 6.757812 7.503906 5.929688 7.28125 5.140625 6.8125 C 4.347656 6.34375 3.660156 5.660156 3.078125 4.765625 L 0.640625 0.984375 Z M 4.59375 3.640625 C 5.125 4.472656 5.78125 4.984375 6.5625 5.171875 C 7.351562 5.367188 8.140625 5.210938 8.921875 4.703125 C 9.722656 4.191406 10.191406 3.535156 10.328125 2.734375 C 10.472656 1.941406 10.28125 1.128906 9.75 0.296875 L 8.609375 -1.453125 L 3.453125 1.890625 Z M 4.59375 3.640625 "/></g></g></g></g></g><g clip-path="url(#8a89636eee)"><path fill="#80c244" d="M 142.078125 149.925781 C 139.113281 145.914062 135.734375 142.285156 131.9375 139.039062 C 128.144531 135.789062 124.03125 133.003906 119.597656 130.679688 C 117.519531 129.59375 115.386719 128.621094 113.203125 127.761719 C 111.019531 126.898438 108.796875 126.15625 106.535156 125.53125 C 104.269531 124.90625 101.980469 124.402344 99.664062 124.015625 C 97.34375 123.632812 95.015625 123.371094 92.667969 123.234375 C 90.324219 123.097656 87.976562 123.082031 85.628906 123.191406 C 83.285156 123.300781 80.949219 123.535156 78.628906 123.890625 C 76.304688 124.246094 74.011719 124.722656 71.738281 125.324219 C 69.46875 125.921875 67.234375 126.636719 65.042969 127.46875 C 66.105469 128.910156 67.226562 130.300781 68.40625 131.648438 C 69.585938 132.996094 70.816406 134.296875 72.101562 135.542969 C 73.386719 136.789062 74.722656 137.984375 76.105469 139.125 C 77.488281 140.265625 78.914062 141.347656 80.386719 142.371094 C 81.859375 143.398438 83.371094 144.359375 84.921875 145.261719 C 86.472656 146.164062 88.058594 147.003906 89.679688 147.777344 C 91.300781 148.550781 92.949219 149.257812 94.628906 149.898438 C 96.304688 150.539062 98.007812 151.109375 99.730469 151.613281 C 101.457031 152.117188 103.199219 152.550781 104.960938 152.910156 C 106.722656 153.273438 108.496094 153.5625 110.28125 153.78125 C 112.0625 154 113.855469 154.148438 115.652344 154.21875 C 117.449219 154.292969 119.246094 154.296875 121.042969 154.222656 C 122.839844 154.152344 124.628906 154.007812 126.414062 153.792969 C 128.199219 153.574219 129.972656 153.285156 131.734375 152.925781 C 133.496094 152.566406 135.238281 152.136719 136.964844 151.636719 C 138.691406 151.132812 140.390625 150.5625 142.070312 149.925781 Z M 142.078125 149.925781 " fill-opacity="1" fill-rule="evenodd"/></g><path fill="#80c244" d="M 142.046875 149.875 L 142.046875 149.925781 C 147.382812 147.878906 152.371094 145.191406 157.003906 141.863281 C 161.640625 138.539062 165.773438 134.679688 169.402344 130.292969 C 165.773438 128.863281 162.050781 127.761719 158.226562 126.988281 C 154.402344 126.210938 150.539062 125.773438 146.640625 125.675781 C 142.738281 125.578125 138.859375 125.816406 135 126.398438 C 131.140625 126.976562 127.363281 127.890625 123.667969 129.132812 C 127.433594 131.910156 130.863281 135.042969 133.960938 138.539062 C 137.058594 142.035156 139.753906 145.816406 142.046875 149.875 Z M 142.046875 149.875 " fill-opacity="1" fill-rule="evenodd"/><g clip-path="url(#479253945d)"><path fill="#ffffff" d="M 117.949219 154.269531 C 116.414062 152.464844 114.785156 150.746094 113.066406 149.117188 C 111.34375 147.488281 109.539062 145.953125 107.648438 144.519531 C 105.761719 143.082031 103.800781 141.75 101.765625 140.527344 C 99.730469 139.300781 97.636719 138.1875 95.480469 137.1875 C 93.328125 136.1875 91.125 135.304688 88.871094 134.542969 C 86.621094 133.777344 84.335938 133.136719 82.011719 132.617188 C 79.691406 132.101562 77.347656 131.707031 74.984375 131.441406 C 72.621094 131.175781 70.25 131.035156 67.871094 131.023438 L 68.292969 131.515625 C 72.347656 132 76.324219 132.847656 80.222656 134.0625 C 84.117188 135.277344 87.871094 136.835938 91.472656 138.742188 C 95.078125 140.648438 98.476562 142.867188 101.664062 145.402344 C 104.855469 147.933594 107.78125 150.734375 110.445312 153.808594 C 110.71875 153.808594 110.992188 153.875 111.273438 153.890625 C 111.554688 153.90625 111.953125 153.972656 112.300781 153.996094 C 113.792969 154.128906 115.304688 154.21875 116.828125 154.242188 C 117.199219 154.242188 117.570312 154.242188 117.949219 154.242188 Z M 117.949219 154.269531 " fill-opacity="1" fill-rule="evenodd"/></g><path fill="#ffffff" d="M 79.457031 127.683594 C 81.855469 127.800781 84.238281 128.046875 86.609375 128.421875 C 88.980469 128.796875 91.324219 129.296875 93.636719 129.925781 C 95.953125 130.554688 98.226562 131.304688 100.460938 132.179688 C 102.691406 133.050781 104.871094 134.042969 106.992188 135.15625 C 109.117188 136.265625 111.171875 137.484375 113.164062 138.820312 C 115.152344 140.152344 117.0625 141.585938 118.894531 143.125 C 120.726562 144.664062 122.464844 146.300781 124.117188 148.027344 C 125.769531 149.753906 127.320312 151.566406 128.773438 153.460938 C 130.847656 153.140625 132.917969 152.714844 134.882812 152.203125 C 133.34375 150.289062 131.695312 148.464844 129.949219 146.730469 C 128.199219 145 126.359375 143.371094 124.425781 141.84375 C 122.492188 140.316406 120.480469 138.898438 118.386719 137.597656 C 116.292969 136.292969 114.132812 135.113281 111.90625 134.050781 C 109.679688 132.988281 107.398438 132.054688 105.066406 131.246094 C 102.730469 130.4375 100.359375 129.761719 97.953125 129.21875 C 95.542969 128.675781 93.109375 128.269531 90.652344 127.996094 C 88.199219 127.726562 85.734375 127.589844 83.261719 127.59375 C 81.988281 127.59375 80.71875 127.59375 79.457031 127.683594 Z M 79.457031 127.683594 " fill-opacity="1" fill-rule="evenodd"/><path fill="#ffffff" d="M 132.8125 137.25 C 139.4375 133.546875 146.5 131.0625 154 129.796875 C 145.824219 130.007812 137.960938 131.679688 130.414062 134.808594 C 131.238281 135.597656 132.03125 136.410156 132.8125 137.25 Z M 132.8125 137.25 " fill-opacity="1" fill-rule="evenodd"/><path fill="#ffffff" d="M 163.523438 134.742188 C 158.808594 134.863281 154.15625 135.484375 149.574219 136.601562 C 144.992188 137.714844 140.582031 139.304688 136.34375 141.363281 C 137.171875 142.359375 137.894531 143.386719 138.621094 144.421875 C 146.246094 139.484375 154.546875 136.253906 163.523438 134.742188 Z M 163.523438 134.742188 " fill-opacity="1" fill-rule="evenodd"/><g clip-path="url(#81138c3b26)"><path fill="#80c244" d="M 119.035156 55.65625 C 137.761719 51.347656 153.203125 42.101562 172.246094 50.722656 C 170.742188 48.617188 169.117188 46.609375 167.375 44.695312 C 165.628906 42.78125 163.777344 40.976562 161.820312 39.28125 C 159.859375 37.585938 157.808594 36.007812 155.660156 34.554688 C 153.515625 33.097656 151.289062 31.773438 148.984375 30.578125 C 146.679688 29.382812 144.3125 28.328125 141.882812 27.410156 C 139.453125 26.492188 136.976562 25.71875 134.453125 25.09375 C 131.929688 24.464844 129.382812 23.988281 126.800781 23.660156 C 124.222656 23.332031 121.632812 23.15625 119.035156 23.132812 L 118.355469 23.132812 C 115.339844 23.132812 112.34375 23.335938 109.355469 23.738281 C 106.371094 24.144531 103.429688 24.75 100.527344 25.554688 C 97.625 26.363281 94.792969 27.359375 92.027344 28.546875 C 89.265625 29.738281 86.59375 31.109375 84.019531 32.660156 C 81.445312 34.214844 78.988281 35.933594 76.648438 37.816406 C 74.3125 39.703125 72.113281 41.738281 70.054688 43.921875 C 67.996094 46.105469 66.097656 48.417969 64.359375 50.859375 C 62.621094 53.300781 61.058594 55.847656 59.671875 58.503906 C 59.671875 58.503906 65.472656 50.390625 75.886719 51.972656 C 81.996094 46.363281 95.058594 37.257812 117.234375 34.863281 C 117.234375 34.863281 94.445312 42.078125 83.355469 54.273438 C 97.082031 58.9375 108.582031 58.066406 119.035156 55.65625 Z M 119.035156 55.65625 " fill-opacity="1" fill-rule="evenodd"/></g><path fill="#ffffff" d="M 77.90625 42.050781 C 80.695312 39.632812 83.679688 37.484375 86.863281 35.605469 C 90.042969 33.722656 93.367188 32.140625 96.835938 30.859375 C 100.304688 29.574219 103.863281 28.613281 107.507812 27.96875 C 111.152344 27.324219 114.824219 27.007812 118.527344 27.023438 C 124.488281 27 130.332031 27.8125 136.054688 29.464844 C 141.777344 31.117188 147.148438 33.539062 152.167969 36.730469 C 149.796875 34.847656 147.28125 33.171875 144.628906 31.703125 C 141.972656 30.238281 139.214844 29 136.351562 27.988281 C 133.492188 26.976562 130.5625 26.207031 127.574219 25.679688 C 124.582031 25.152344 121.566406 24.875 118.527344 24.84375 L 117.929688 24.84375 C 114.179688 24.84375 110.46875 25.222656 106.792969 25.976562 C 103.121094 26.734375 99.5625 27.851562 96.121094 29.332031 C 92.679688 30.8125 89.425781 32.621094 86.359375 34.765625 C 83.289062 36.90625 80.472656 39.335938 77.90625 42.050781 Z M 77.90625 42.050781 " fill-opacity="1" fill-rule="evenodd"/><path fill="#ffffff" d="M 89.082031 53.222656 C 95.554688 48.21875 102.691406 44.464844 110.496094 41.953125 C 113.292969 41.03125 116.136719 40.265625 119.015625 39.648438 C 116.1875 39.824219 113.398438 40.246094 110.644531 40.921875 C 107.894531 41.59375 105.222656 42.507812 102.636719 43.660156 C 100.050781 44.8125 97.589844 46.183594 95.253906 47.777344 C 92.917969 49.367188 90.746094 51.15625 88.734375 53.140625 Z M 89.082031 53.222656 " fill-opacity="1" fill-rule="evenodd"/><g clip-path="url(#767b1c5213)"><g transform="matrix(1, 0, 0, 1, 0, 49)"><g clip-path="url(#10d2f2b47d)"><g fill="#181b13" fill-opacity="1"><g transform="translate(0.52216, 57.256645)"><g><path d="M 6.015625 0 C 4.429688 -0.1875 3.269531 -0.890625 2.53125 -2.109375 C 1.800781 -3.328125 1.628906 -4.644531 2.015625 -6.0625 L 9.890625 -35.609375 C 9.421875 -36.140625 9.050781 -36.769531 8.78125 -37.5 C 8.507812 -38.238281 8.316406 -38.9375 8.203125 -39.59375 C 8.171875 -39.894531 8.257812 -40.148438 8.46875 -40.359375 C 8.675781 -40.578125 8.9375 -40.648438 9.25 -40.578125 L 11.15625 -40.453125 L 12.71875 -40.453125 C 14.5625 -40.453125 16.085938 -40.53125 17.296875 -40.6875 C 18.515625 -40.84375 19.597656 -40.992188 20.546875 -41.140625 C 21.492188 -41.296875 22.445312 -41.375 23.40625 -41.375 C 24.789062 -41.375 25.847656 -40.929688 26.578125 -40.046875 C 27.316406 -39.160156 27.835938 -38.160156 28.140625 -37.046875 C 28.222656 -36.734375 28.175781 -36.460938 28 -36.234375 C 27.832031 -36.003906 27.59375 -35.890625 27.28125 -35.890625 L 23.578125 -35.78125 C 22.734375 -35.738281 21.613281 -35.648438 20.21875 -35.515625 C 18.832031 -35.378906 17.46875 -35.21875 16.125 -35.03125 L 15.953125 -34.28125 L 11.84375 -18.90625 L 14.90625 -19.25 C 16.5625 -19.4375 17.945312 -19.125 19.0625 -18.3125 C 20.1875 -17.507812 20.75 -16.453125 20.75 -15.140625 C 20.75 -14.710938 20.5 -14.460938 20 -14.390625 L 10.46875 -13.53125 L 7 -0.578125 C 6.875 -0.117188 6.546875 0.0703125 6.015625 0 Z M 6.015625 0 "/></g></g></g><g fill="#181b13" fill-opacity="1"><g transform="translate(22.36776, 57.256645)"><g><path d="M 1.5 3.234375 C 0.3125 3.078125 -0.578125 2.382812 -1.171875 1.15625 C -1.773438 -0.0703125 -1.710938 -1.75 -0.984375 -3.875 L 5.84375 -23 C 5.101562 -24 4.734375 -25.066406 4.734375 -26.203125 C 4.734375 -27.347656 4.890625 -28.398438 5.203125 -29.359375 C 5.585938 -30.515625 6.113281 -31.476562 6.78125 -32.25 C 7.457031 -33.019531 8.429688 -33.40625 9.703125 -33.40625 C 10.441406 -33.40625 10.9375 -33.101562 11.1875 -32.5 C 11.4375 -31.90625 11.519531 -31.1875 11.4375 -30.34375 C 11.363281 -29.5 11.191406 -28.695312 10.921875 -27.9375 C 10.648438 -27.1875 10.363281 -26.660156 10.0625 -26.359375 C 10.289062 -26.390625 10.847656 -26.632812 11.734375 -27.09375 C 12.617188 -27.5625 13.617188 -28.023438 14.734375 -28.484375 C 15.859375 -28.953125 16.898438 -29.1875 17.859375 -29.1875 C 19.328125 -29.03125 20.28125 -28.34375 20.71875 -27.125 C 21.164062 -25.914062 21.003906 -23.828125 20.234375 -20.859375 L 17.28125 -9.9375 C 16.664062 -7.738281 16.429688 -6.175781 16.578125 -5.25 C 16.734375 -4.332031 17.390625 -3.875 18.546875 -3.875 C 19.171875 -3.875 19.867188 -4.046875 20.640625 -4.390625 C 21.410156 -4.734375 22.21875 -5.53125 23.0625 -6.78125 C 23.90625 -8.039062 24.734375 -10.019531 25.546875 -12.71875 C 25.617188 -12.988281 25.773438 -13.046875 26.015625 -12.890625 C 27.242188 -12.117188 27.6875 -11.132812 27.34375 -9.9375 C 26.332031 -6.4375 24.988281 -3.75 23.3125 -1.875 C 21.644531 -0.0078125 19.382812 0.921875 16.53125 0.921875 C 13.832031 0.921875 12.03125 -0.347656 11.125 -2.890625 C 10.21875 -5.429688 10.398438 -8.800781 11.671875 -13 L 14.5625 -22.59375 C 14.675781 -23.019531 14.609375 -23.367188 14.359375 -23.640625 C 14.109375 -23.910156 13.769531 -24.003906 13.34375 -23.921875 L 10.0625 -23.34375 L 2.078125 2.59375 C 1.921875 3.019531 1.726562 3.234375 1.5 3.234375 Z M 1.5 3.234375 "/></g></g></g><g fill="#181b13" fill-opacity="1"><g transform="translate(45.658178, 57.256645)"><g><path d="M 27.171875 -12.890625 C 28.398438 -12.117188 28.84375 -11.132812 28.5 -9.9375 C 27.53125 -6.664062 25.847656 -4.035156 23.453125 -2.046875 C 21.066406 -0.0664062 17.757812 0.921875 13.53125 0.921875 C 12.71875 0.921875 11.691406 0.8125 10.453125 0.59375 C 9.222656 0.382812 7.988281 -0.0390625 6.75 -0.6875 C 5.519531 -1.34375 4.453125 -2.316406 3.546875 -3.609375 C 2.648438 -4.898438 2.09375 -6.625 1.875 -8.78125 C 1.664062 -10.9375 2.003906 -13.632812 2.890625 -16.875 C 3.847656 -20.457031 5.117188 -23.226562 6.703125 -25.1875 C 8.285156 -27.15625 10.03125 -28.457031 11.9375 -29.09375 C 13.84375 -29.726562 15.796875 -29.78125 17.796875 -29.25 C 19.722656 -29.320312 21.222656 -28.78125 22.296875 -27.625 C 23.378906 -26.46875 23.96875 -24.953125 24.0625 -23.078125 C 24.164062 -21.210938 23.695312 -19.222656 22.65625 -17.109375 C 21 -13.753906 19.003906 -11.453125 16.671875 -10.203125 C 14.335938 -8.953125 12.035156 -8.519531 9.765625 -8.90625 C 9.492188 -8.976562 9.242188 -9.03125 9.015625 -9.0625 C 8.785156 -9.101562 8.570312 -9.144531 8.375 -9.1875 C 8.613281 -7.1875 9.394531 -5.800781 10.71875 -5.03125 C 12.050781 -4.257812 13.660156 -3.875 15.546875 -3.875 C 16.929688 -3.875 18.335938 -4.046875 19.765625 -4.390625 C 21.191406 -4.734375 22.507812 -5.519531 23.71875 -6.75 C 24.9375 -7.988281 25.929688 -9.957031 26.703125 -12.65625 C 26.773438 -12.96875 26.929688 -13.046875 27.171875 -12.890625 Z M 15.265625 -26.296875 C 13.953125 -26.140625 12.859375 -25.210938 11.984375 -23.515625 C 11.117188 -21.828125 10.226562 -19.398438 9.3125 -16.234375 C 9.039062 -15.203125 8.804688 -14.222656 8.609375 -13.296875 C 10.460938 -13.179688 11.90625 -13.316406 12.9375 -13.703125 C 13.976562 -14.085938 14.835938 -14.734375 15.515625 -15.640625 C 16.191406 -16.546875 16.835938 -17.671875 17.453125 -19.015625 C 18.335938 -21.171875 18.644531 -22.828125 18.375 -23.984375 C 18.101562 -25.140625 17.066406 -25.910156 15.265625 -26.296875 Z M 15.265625 -26.296875 "/></g></g></g><g fill="#181b13" fill-opacity="1"><g transform="translate(70.10444, 57.256645)"><g><path d="M 25.890625 -12.890625 C 27.128906 -12.117188 27.570312 -11.132812 27.21875 -9.9375 C 26.257812 -6.9375 24.929688 -4.65625 23.234375 -3.09375 C 21.535156 -1.53125 19.597656 -0.484375 17.421875 0.046875 C 15.242188 0.585938 12.90625 0.859375 10.40625 0.859375 C 6.09375 0.859375 2.769531 -0.160156 0.4375 -2.203125 C -1.894531 -4.242188 -3.0625 -6.820312 -3.0625 -9.9375 C -3.0625 -11.476562 -2.703125 -12.625 -1.984375 -13.375 C -1.273438 -14.125 -0.421875 -14.578125 0.578125 -14.734375 C 0.804688 -14.773438 1.003906 -14.707031 1.171875 -14.53125 C 1.347656 -14.363281 1.457031 -14.144531 1.5 -13.875 C 1.539062 -13.5625 1.5625 -13.238281 1.5625 -12.90625 C 1.5625 -12.582031 1.582031 -12.269531 1.625 -11.96875 C 3.582031 -15.4375 5.1875 -18.273438 6.4375 -20.484375 C 7.695312 -22.703125 8.679688 -24.492188 9.390625 -25.859375 C 10.109375 -27.234375 10.617188 -28.363281 10.921875 -29.25 C 11.304688 -30.320312 11.84375 -31.1875 12.53125 -31.84375 C 13.226562 -32.5 14.097656 -32.828125 15.140625 -32.828125 C 16.140625 -32.828125 16.898438 -32.644531 17.421875 -32.28125 C 17.941406 -31.914062 18.109375 -31.234375 17.921875 -30.234375 C 17.804688 -29.648438 17.613281 -29.050781 17.34375 -28.4375 C 17.070312 -27.820312 16.6875 -27.1875 16.1875 -26.53125 C 17.070312 -25.03125 17.710938 -23.390625 18.109375 -21.609375 C 18.515625 -19.835938 18.773438 -18.125 18.890625 -16.46875 C 19.015625 -14.8125 19.035156 -13.382812 18.953125 -12.1875 C 18.796875 -9.84375 18.457031 -7.976562 17.9375 -6.59375 C 17.425781 -5.207031 16.84375 -4.066406 16.1875 -3.171875 C 17.300781 -3.441406 18.453125 -3.941406 19.640625 -4.671875 C 20.835938 -5.410156 21.945312 -6.441406 22.96875 -7.765625 C 23.988281 -9.097656 24.8125 -10.75 25.4375 -12.71875 C 25.507812 -12.988281 25.660156 -13.046875 25.890625 -12.890625 Z M 7.34375 -2.546875 C 8.1875 -2.546875 9.003906 -2.988281 9.796875 -3.875 C 10.585938 -4.757812 11.289062 -5.960938 11.90625 -7.484375 C 12.519531 -9.003906 12.972656 -10.707031 13.265625 -12.59375 C 13.554688 -14.488281 13.632812 -16.445312 13.5 -18.46875 C 13.363281 -20.488281 12.925781 -22.425781 12.1875 -24.28125 L 2.546875 -6.421875 C 2.929688 -5.222656 3.5 -4.273438 4.25 -3.578125 C 5 -2.890625 6.03125 -2.546875 7.34375 -2.546875 Z M 7.34375 -2.546875 "/></g></g></g><g fill="#181b13" fill-opacity="1"><g transform="translate(93.279268, 57.256645)"><g><path d="M 29.703125 -12.890625 C 30.941406 -12.160156 31.382812 -11.175781 31.03125 -9.9375 C 29.957031 -6.664062 28.597656 -4.035156 26.953125 -2.046875 C 25.316406 -0.0664062 23.078125 0.921875 20.234375 0.921875 C 18.191406 0.921875 16.609375 0.53125 15.484375 -0.25 C 14.367188 -1.039062 13.789062 -2.445312 13.75 -4.46875 C 13.71875 -6.5 14.257812 -9.34375 15.375 -13 L 18.78125 -24.28125 C 18.894531 -24.625 18.851562 -24.9375 18.65625 -25.21875 C 18.46875 -25.507812 18.203125 -25.617188 17.859375 -25.546875 C 15.890625 -25.273438 14.179688 -24.078125 12.734375 -21.953125 C 11.296875 -19.835938 9.898438 -16.625 8.546875 -12.3125 L 5.09375 0.234375 C 4.96875 0.734375 4.675781 0.941406 4.21875 0.859375 C 2.632812 0.597656 1.457031 -0.117188 0.6875 -1.296875 C -0.0820312 -2.472656 -0.273438 -3.796875 0.109375 -5.265625 L 10.40625 -42.421875 C 10.5625 -42.878906 10.847656 -43.070312 11.265625 -43 C 12.773438 -42.8125 13.941406 -42.117188 14.765625 -40.921875 C 15.597656 -39.722656 15.800781 -38.375 15.375 -36.875 L 12.65625 -27.109375 C 13.738281 -28.265625 15.019531 -29.082031 16.5 -29.5625 C 17.976562 -30.039062 19.609375 -29.914062 21.390625 -29.1875 C 22.929688 -29.070312 23.941406 -28.40625 24.421875 -27.1875 C 24.898438 -25.976562 24.734375 -23.867188 23.921875 -20.859375 L 20.984375 -9.9375 C 20.367188 -7.738281 20.132812 -6.175781 20.28125 -5.25 C 20.4375 -4.332031 21.09375 -3.875 22.25 -3.875 C 22.863281 -3.875 23.554688 -4.046875 24.328125 -4.390625 C 25.097656 -4.734375 25.90625 -5.53125 26.75 -6.78125 C 27.601562 -8.039062 28.4375 -10.019531 29.25 -12.71875 C 29.320312 -12.988281 29.472656 -13.046875 29.703125 -12.890625 Z M 29.703125 -12.890625 "/></g></g></g><g fill="#181b13" fill-opacity="1"><g transform="translate(120.268412, 57.256645)"><g/></g></g><g fill="#181b13" fill-opacity="1"><g transform="translate(134.716559, 57.256645)"><g><path d="M 6.015625 0 C 4.429688 -0.1875 3.269531 -0.890625 2.53125 -2.109375 C 1.800781 -3.328125 1.628906 -4.644531 2.015625 -6.0625 L 9.890625 -35.609375 C 9.421875 -36.140625 9.050781 -36.769531 8.78125 -37.5 C 8.507812 -38.238281 8.316406 -38.9375 8.203125 -39.59375 C 8.171875 -39.894531 8.257812 -40.148438 8.46875 -40.359375 C 8.675781 -40.578125 8.9375 -40.648438 9.25 -40.578125 L 11.15625 -40.453125 L 12.71875 -40.453125 C 14.5625 -40.453125 16.085938 -40.53125 17.296875 -40.6875 C 18.515625 -40.84375 19.597656 -40.992188 20.546875 -41.140625 C 21.492188 -41.296875 22.445312 -41.375 23.40625 -41.375 C 24.789062 -41.375 25.847656 -40.929688 26.578125 -40.046875 C 27.316406 -39.160156 27.835938 -38.160156 28.140625 -37.046875 C 28.222656 -36.734375 28.175781 -36.460938 28 -36.234375 C 27.832031 -36.003906 27.59375 -35.890625 27.28125 -35.890625 L 23.578125 -35.78125 C 22.734375 -35.738281 21.613281 -35.648438 20.21875 -35.515625 C 18.832031 -35.378906 17.46875 -35.21875 16.125 -35.03125 L 15.953125 -34.28125 L 11.84375 -18.90625 L 14.90625 -19.25 C 16.5625 -19.4375 17.945312 -19.125 19.0625 -18.3125 C 20.1875 -17.507812 20.75 -16.453125 20.75 -15.140625 C 20.75 -14.710938 20.5 -14.460938 20 -14.390625 L 10.46875 -13.53125 L 7 -0.578125 C 6.875 -0.117188 6.546875 0.0703125 6.015625 0 Z M 6.015625 0 "/></g></g></g><g fill="#181b13" fill-opacity="1"><g transform="translate(156.562159, 57.256645)"><g><path d="M 11.5 0.8125 C 8.570312 1.269531 6.257812 0.90625 4.5625 -0.28125 C 2.863281 -1.476562 1.84375 -3.382812 1.5 -6 C 1.15625 -8.625 1.539062 -11.828125 2.65625 -15.609375 C 3.539062 -18.492188 4.617188 -21.003906 5.890625 -23.140625 C 7.160156 -25.285156 8.660156 -26.914062 10.390625 -28.03125 C 12.128906 -29.144531 14.097656 -29.609375 16.296875 -29.421875 C 18.148438 -30.078125 19.75 -30.101562 21.09375 -29.5 C 22.445312 -28.90625 23.515625 -27.847656 24.296875 -26.328125 C 25.085938 -24.804688 25.507812 -22.9375 25.5625 -20.71875 C 25.625 -18.5 25.269531 -16.082031 24.5 -13.46875 C 23.15625 -8.84375 21.507812 -5.316406 19.5625 -2.890625 C 17.613281 -0.460938 14.925781 0.769531 11.5 0.8125 Z M 9.890625 -2.203125 C 11.160156 -1.890625 12.238281 -2.085938 13.125 -2.796875 C 14.007812 -3.515625 14.851562 -4.796875 15.65625 -6.640625 C 16.46875 -8.492188 17.359375 -11 18.328125 -14.15625 C 18.742188 -15.539062 19.054688 -16.945312 19.265625 -18.375 C 19.484375 -19.800781 19.515625 -21.109375 19.359375 -22.296875 C 19.203125 -23.492188 18.796875 -24.457031 18.140625 -25.1875 C 17.492188 -25.925781 16.535156 -26.296875 15.265625 -26.296875 C 13.910156 -26.109375 12.78125 -25.078125 11.875 -23.203125 C 10.96875 -21.335938 9.957031 -18.570312 8.84375 -14.90625 C 8.300781 -13.0625 7.914062 -11.25 7.6875 -9.46875 C 7.457031 -7.695312 7.503906 -6.164062 7.828125 -4.875 C 8.160156 -3.59375 8.847656 -2.703125 9.890625 -2.203125 Z M 9.890625 -2.203125 "/></g></g></g><g fill="#181b13" fill-opacity="1"><g transform="translate(181.933113, 57.256645)"><g><path d="M 11.5 0.8125 C 8.570312 1.269531 6.257812 0.90625 4.5625 -0.28125 C 2.863281 -1.476562 1.84375 -3.382812 1.5 -6 C 1.15625 -8.625 1.539062 -11.828125 2.65625 -15.609375 C 3.539062 -18.492188 4.617188 -21.003906 5.890625 -23.140625 C 7.160156 -25.285156 8.660156 -26.914062 10.390625 -28.03125 C 12.128906 -29.144531 14.097656 -29.609375 16.296875 -29.421875 C 18.148438 -30.078125 19.75 -30.101562 21.09375 -29.5 C 22.445312 -28.90625 23.515625 -27.847656 24.296875 -26.328125 C 25.085938 -24.804688 25.507812 -22.9375 25.5625 -20.71875 C 25.625 -18.5 25.269531 -16.082031 24.5 -13.46875 C 23.15625 -8.84375 21.507812 -5.316406 19.5625 -2.890625 C 17.613281 -0.460938 14.925781 0.769531 11.5 0.8125 Z M 9.890625 -2.203125 C 11.160156 -1.890625 12.238281 -2.085938 13.125 -2.796875 C 14.007812 -3.515625 14.851562 -4.796875 15.65625 -6.640625 C 16.46875 -8.492188 17.359375 -11 18.328125 -14.15625 C 18.742188 -15.539062 19.054688 -16.945312 19.265625 -18.375 C 19.484375 -19.800781 19.515625 -21.109375 19.359375 -22.296875 C 19.203125 -23.492188 18.796875 -24.457031 18.140625 -25.1875 C 17.492188 -25.925781 16.535156 -26.296875 15.265625 -26.296875 C 13.910156 -26.109375 12.78125 -25.078125 11.875 -23.203125 C 10.96875 -21.335938 9.957031 -18.570312 8.84375 -14.90625 C 8.300781 -13.0625 7.914062 -11.25 7.6875 -9.46875 C 7.457031 -7.695312 7.503906 -6.164062 7.828125 -4.875 C 8.160156 -3.59375 8.847656 -2.703125 9.890625 -2.203125 Z M 9.890625 -2.203125 "/></g></g></g><g fill="#181b13" fill-opacity="1"><g transform="translate(207.304067, 57.256645)"><g><path d="M 30.578125 -12.890625 C 31.804688 -12.117188 32.25 -11.132812 31.90625 -9.9375 C 30.820312 -6.664062 29.460938 -4.035156 27.828125 -2.046875 C 26.191406 -0.0664062 23.945312 0.921875 21.09375 0.921875 C 19.320312 0.921875 17.90625 0.671875 16.84375 0.171875 C 15.789062 -0.328125 15.109375 -1.234375 14.796875 -2.546875 C 14.296875 -1.773438 13.753906 -1.144531 13.171875 -0.65625 C 12.597656 -0.175781 12.039062 0.0390625 11.5 0 C 8.757812 1.113281 6.523438 1.148438 4.796875 0.109375 C 3.066406 -0.921875 1.988281 -2.8125 1.5625 -5.5625 C 1.132812 -8.320312 1.5 -11.671875 2.65625 -15.609375 C 3.539062 -18.492188 4.617188 -21.003906 5.890625 -23.140625 C 7.160156 -25.285156 8.660156 -26.914062 10.390625 -28.03125 C 12.128906 -29.144531 14.097656 -29.609375 16.296875 -29.421875 C 17.066406 -29.609375 17.835938 -29.519531 18.609375 -29.15625 C 19.378906 -28.789062 20.015625 -28.164062 20.515625 -27.28125 L 25.03125 -42.484375 C 25.144531 -42.867188 25.394531 -43.0625 25.78125 -43.0625 C 27.507812 -43.0625 28.671875 -42.460938 29.265625 -41.265625 C 29.867188 -40.066406 29.726562 -37.890625 28.84375 -34.734375 L 21.84375 -9.9375 C 21.226562 -7.707031 21 -6.140625 21.15625 -5.234375 C 21.3125 -4.328125 21.96875 -3.875 23.125 -3.875 C 23.738281 -3.875 24.429688 -4.046875 25.203125 -4.390625 C 25.972656 -4.734375 26.78125 -5.53125 27.625 -6.78125 C 28.476562 -8.039062 29.304688 -10.019531 30.109375 -12.71875 C 30.191406 -12.988281 30.347656 -13.046875 30.578125 -12.890625 Z M 9.890625 -2.953125 C 10.578125 -2.796875 11.285156 -3.070312 12.015625 -3.78125 C 12.753906 -4.5 13.445312 -5.484375 14.09375 -6.734375 C 14.75 -7.984375 15.253906 -9.320312 15.609375 -10.75 C 15.679688 -11.09375 15.773438 -11.457031 15.890625 -11.84375 C 16.003906 -12.226562 16.117188 -12.613281 16.234375 -13 L 18.375 -20.234375 C 18.757812 -21.921875 18.835938 -23.253906 18.609375 -24.234375 C 18.378906 -25.222656 17.722656 -25.71875 16.640625 -25.71875 C 15.335938 -25.71875 13.988281 -24.832031 12.59375 -23.0625 C 11.207031 -21.289062 9.957031 -18.570312 8.84375 -14.90625 C 8.300781 -13.0625 7.914062 -11.316406 7.6875 -9.671875 C 7.457031 -8.035156 7.503906 -6.628906 7.828125 -5.453125 C 8.160156 -4.285156 8.847656 -3.453125 9.890625 -2.953125 Z M 9.890625 -2.953125 "/></g></g></g></g></g></g></g></g></svg>